<?xml version="1.0" standalone="no"?>
<!DOCTYPE svg PUBLIC "-//W3C//DTD SVG 20010904//EN"
 "http://www.w3.org/TR/2001/REC-SVG-20010904/DTD/svg10.dtd">
<svg version="1.0" xmlns="http://www.w3.org/2000/svg"
 width="204.000000pt" height="192.000000pt" viewBox="0 0 204.000000 192.000000"
 preserveAspectRatio="xMidYMid meet">

<g transform="translate(0.000000,192.000000) scale(0.100000,-0.100000)"
fill="#000000" stroke="none">
<path d="M25 1883 c6 -51 23 -220 35 -368 13 -145 33 -378 55 -615 15 -167 27
-300 60 -670 8 -91 15 -175 15 -186 0 -42 44 -44 830 -44 763 0 830 3 830 39
0 18 22 267 44 521 9 91 22 244 31 340 9 96 22 247 30 335 8 88 19 212 25 275
23 264 31 347 36 378 l5 32 -1001 0 -1000 0 5 -37z m1641 -225 c-3 -29 -8 -84
-12 -122 -3 -38 -8 -75 -11 -83 -4 -11 -97 -13 -491 -13 l-485 0 7 -82 c3 -46
9 -103 12 -128 l6 -45 464 3 c255 1 464 -1 464 -5 0 -5 -7 -82 -15 -173 -9
-91 -22 -239 -30 -330 -8 -91 -17 -197 -21 -236 l-7 -70 -46 -13 c-67 -18
-126 -35 -304 -86 -165 -47 -191 -51 -229 -36 -13 5 -125 38 -250 73 l-226 63
-6 35 c-11 68 -28 360 -22 375 4 12 27 15 125 15 66 0 122 -3 125 -8 2 -4 9
-52 15 -107 7 -54 13 -100 14 -101 1 -2 63 -19 137 -38 l134 -35 136 35 c74
20 138 41 142 47 4 7 8 26 8 42 1 17 3 48 6 70 2 22 8 77 12 123 l8 82 -438 0
c-342 0 -440 3 -443 13 -6 14 -18 149 -45 472 -11 132 -23 252 -26 267 -3 15
-3 32 1 38 4 7 222 10 651 10 l645 0 -5 -52z"/>
</g>
</svg>
